<?xml version="1.0" encoding="UTF-8"?>
<svg xmlns="http://www.w3.org/2000/svg" xmlns:xlink="http://www.w3.org/1999/xlink" width="64px" height="64px" viewBox="0 0 64 64" version="1.1">
<g id="surface212211">
<path style=" stroke:none;fill-rule:nonzero;fill:rgb(92.941176%,47.058824%,60%);fill-opacity:1;" d="M 64 31.621094 C 64.011719 33.757812 63.675781 35.882812 63 37.910156 C 62.382812 39.757812 61.394531 41.457031 60.101562 42.910156 C 58.804688 44.347656 57.222656 45.503906 55.460938 46.300781 C 53.507812 47.164062 51.394531 47.589844 49.261719 47.550781 C 47.511719 47.566406 45.777344 47.277344 44.128906 46.699219 C 42.550781 46.132812 41.054688 45.367188 39.671875 44.421875 C 38.257812 43.453125 36.917969 42.378906 35.671875 41.210938 C 34.382812 40.058594 33.160156 38.851562 32 37.601562 C 30.753906 38.847656 29.519531 40.066406 28.300781 41.261719 C 27.121094 42.417969 25.832031 43.460938 24.460938 44.378906 C 23.109375 45.28125 21.65625 46.015625 20.128906 46.570312 C 18.4375 47.160156 16.652344 47.449219 14.859375 47.421875 C 12.746094 47.453125 10.648438 47.042969 8.699219 46.21875 C 6.933594 45.46875 5.335938 44.375 4 43 C 2.652344 41.570312 1.628906 39.863281 1 38 C 0.3125 36.007812 -0.0273438 33.910156 0 31.800781 C -0.0273438 29.703125 0.3125 27.621094 1 25.640625 C 1.644531 23.804688 2.625 22.109375 3.898438 20.640625 C 5.167969 19.199219 6.738281 18.054688 8.5 17.289062 C 10.429688 16.46875 12.511719 16.058594 14.609375 16.089844 C 16.417969 16.074219 18.214844 16.375 19.921875 16.980469 C 21.535156 17.566406 23.0625 18.363281 24.46875 19.351562 C 25.878906 20.34375 27.195312 21.464844 28.398438 22.699219 C 29.621094 23.945312 30.824219 25.257812 32.011719 26.628906 C 33.144531 25.296875 34.332031 24.003906 35.578125 22.75 C 36.800781 21.492188 38.140625 20.359375 39.578125 19.359375 C 41 18.382812 42.523438 17.574219 44.128906 16.949219 C 45.796875 16.304688 47.574219 15.984375 49.359375 16 C 51.457031 15.96875 53.539062 16.378906 55.46875 17.199219 C 57.222656 17.957031 58.792969 19.082031 60.070312 20.5 C 61.351562 21.960938 62.339844 23.660156 62.96875 25.5 C 63.664062 27.464844 64.011719 29.535156 64 31.621094 Z M 27.140625 32 C 26.367188 31.226562 25.503906 30.394531 24.550781 29.5 C 23.605469 28.605469 22.601562 27.769531 21.550781 27 C 20.496094 26.234375 19.359375 25.59375 18.160156 25.078125 C 17.0625 24.59375 15.878906 24.335938 14.679688 24.320312 C 12.71875 24.238281 10.832031 25.082031 9.589844 26.601562 C 8.351562 28.089844 7.6875 29.972656 7.71875 31.910156 C 7.628906 33.863281 8.304688 35.773438 9.601562 37.238281 C 10.992188 38.65625 12.925781 39.402344 14.910156 39.289062 C 16.089844 39.28125 17.253906 39.054688 18.351562 38.621094 C 19.515625 38.171875 20.621094 37.585938 21.648438 36.878906 C 22.703125 36.160156 23.703125 35.367188 24.648438 34.511719 C 25.53125 33.726562 26.363281 32.886719 27.140625 32 Z M 56.328125 31.910156 C 56.402344 29.914062 55.734375 27.957031 54.460938 26.421875 C 53.128906 24.925781 51.1875 24.117188 49.191406 24.230469 C 47.984375 24.234375 46.796875 24.496094 45.699219 25 C 44.539062 25.535156 43.441406 26.207031 42.441406 27 C 41.402344 27.800781 40.417969 28.664062 39.488281 29.589844 L 37 32.070312 C 37.773438 32.902344 38.636719 33.75 39.589844 34.609375 C 40.535156 35.46875 41.539062 36.257812 42.589844 36.980469 C 43.617188 37.6875 44.726562 38.269531 45.890625 38.71875 C 47.042969 39.164062 48.273438 39.394531 49.511719 39.390625 C 51.457031 39.503906 53.34375 38.691406 54.601562 37.199219 C 55.78125 35.6875 56.390625 33.808594 56.320312 31.890625 Z M 56.328125 31.910156 "/>
<path style=" stroke:none;fill-rule:nonzero;fill:rgb(87.843137%,40.392157%,56.078431%);fill-opacity:1;" d="M 40 28 C 38 27 36.078125 25.648438 34 26 L 32 28 C 34 27.140625 33.359375 30.429688 36 31 C 38 30 37.339844 30.351562 40 28 Z M 32 36 C 29.941406 35.878906 30.078125 31.648438 28 32 L 24 37 C 24.75 38.503906 25.765625 39.859375 27 41 C 28.5 38.800781 29.339844 38.351562 32 36 Z M 32 36 "/>
<path style=" stroke:none;fill-rule:nonzero;fill:rgb(55.294118%,42.352941%,62.352941%);fill-opacity:1;" d="M 63 25.460938 C 62.367188 23.621094 61.382812 21.921875 60.101562 20.460938 C 58.820312 19.042969 57.253906 17.917969 55.5 17.160156 C 53.558594 16.347656 51.464844 15.953125 49.359375 16 C 47.589844 15.988281 45.832031 16.304688 44.179688 16.941406 C 42.574219 17.5625 41.046875 18.375 39.628906 19.351562 C 38.191406 20.347656 36.851562 21.484375 35.628906 22.738281 C 34.382812 24.011719 33.195312 25.304688 32.070312 26.609375 L 31.96875 26.5 L 31.898438 26.449219 C 30.761719 25.117188 29.609375 23.867188 28.449219 22.699219 C 27.246094 21.464844 25.929688 20.34375 24.519531 19.351562 C 23.105469 18.367188 21.570312 17.578125 19.949219 17 C 18.246094 16.394531 16.449219 16.09375 14.640625 16.109375 C 12.542969 16.078125 10.460938 16.488281 8.53125 17.308594 C 6.769531 18.074219 5.195312 19.21875 3.929688 20.660156 C 2.65625 22.128906 1.671875 23.824219 1.03125 25.660156 C 0.335938 27.632812 -0.015625 29.710938 0 31.800781 C -0.0273438 33.910156 0.3125 36.007812 1 38 C 1.628906 39.863281 2.652344 41.570312 4 43 C 5.34375 44.394531 6.949219 45.5 8.730469 46.261719 C 10.679688 47.082031 12.777344 47.492188 14.890625 47.460938 C 16.683594 47.488281 18.46875 47.199219 20.160156 46.609375 C 21.6875 46.054688 23.140625 45.320312 24.488281 44.421875 C 25.863281 43.5 27.148438 42.457031 28.328125 41.300781 C 29.550781 40.113281 30.785156 38.894531 32.03125 37.640625 C 33.164062 38.886719 34.371094 40.105469 35.648438 41.300781 C 36.898438 42.46875 38.238281 43.542969 39.648438 44.511719 C 41.035156 45.457031 42.53125 46.222656 44.109375 46.789062 C 45.757812 47.367188 47.492188 47.65625 49.238281 47.640625 C 51.371094 47.679688 53.488281 47.253906 55.441406 46.390625 C 57.21875 45.597656 58.8125 44.441406 60.121094 43 C 61.414062 41.546875 62.402344 39.847656 63.019531 38 C 63.695312 35.972656 64.035156 33.847656 64.019531 31.710938 C 64.050781 29.582031 63.703125 27.46875 63 25.460938 Z M 61.179688 37.289062 C 60.648438 38.902344 59.792969 40.386719 58.671875 41.660156 C 57.554688 42.902344 56.191406 43.898438 54.671875 44.589844 C 52.972656 45.332031 51.132812 45.695312 49.28125 45.660156 C 47.753906 45.671875 46.238281 45.421875 44.800781 44.921875 C 43.386719 44.410156 42.042969 43.71875 40.800781 42.871094 C 39.460938 41.96875 38.195312 40.964844 37.011719 39.871094 C 35.808594 38.761719 34.660156 37.589844 33.589844 36.410156 C 33.589844 36.410156 26.859375 29 25.910156 28.109375 C 24.890625 27.15625 23.8125 26.265625 22.679688 25.449219 C 21.507812 24.601562 20.242188 23.886719 18.910156 23.320312 C 17.570312 22.734375 16.128906 22.425781 14.671875 22.410156 C 12.128906 22.324219 9.691406 23.433594 8.089844 25.410156 C 6.5625 27.242188 5.738281 29.5625 5.769531 31.949219 C 5.679688 34.410156 6.554688 36.808594 8.210938 38.628906 C 9.964844 40.445312 12.417969 41.417969 14.941406 41.300781 C 16.355469 41.289062 17.753906 41.019531 19.070312 40.5 C 20.378906 39.980469 21.617188 39.308594 22.769531 38.5 C 23.882812 37.738281 24.941406 36.902344 25.941406 36 C 26.792969 35.230469 27.597656 34.410156 28.359375 33.550781 L 30.761719 36.210938 L 30.679688 36.28125 C 29.433594 37.492188 28.207031 38.691406 27 39.878906 C 25.90625 40.953125 24.714844 41.925781 23.441406 42.78125 C 22.21875 43.601562 20.902344 44.273438 19.519531 44.78125 C 18.039062 45.289062 16.484375 45.535156 14.921875 45.511719 C 13.074219 45.550781 11.238281 45.210938 9.53125 44.511719 C 7.984375 43.855469 6.585938 42.894531 5.421875 41.691406 C 4.273438 40.480469 3.398438 39.042969 2.851562 37.46875 C 2.226562 35.671875 1.917969 33.78125 1.941406 31.878906 C 1.921875 30.003906 2.230469 28.140625 2.851562 26.371094 C 3.414062 24.761719 4.277344 23.277344 5.390625 21.988281 C 6.472656 20.765625 7.808594 19.792969 9.308594 19.140625 C 10.996094 18.4375 12.8125 18.097656 14.640625 18.140625 C 16.222656 18.128906 17.796875 18.390625 19.289062 18.921875 C 20.746094 19.445312 22.121094 20.164062 23.390625 21.050781 C 24.679688 21.921875 25.886719 22.910156 27 24 C 28.191406 25.21875 29.378906 26.511719 30.539062 27.851562 C 30.585938 27.898438 30.636719 27.945312 30.691406 27.988281 L 35.441406 33.28125 L 35.441406 33.339844 C 36.25 34.21875 37.160156 35.109375 38.148438 36 C 39.160156 36.914062 40.226562 37.761719 41.351562 38.53125 C 42.5 39.339844 43.742188 40.011719 45.050781 40.53125 C 46.425781 41.058594 47.886719 41.332031 49.359375 41.328125 C 51.910156 41.464844 54.371094 40.386719 56 38.421875 C 57.488281 36.574219 58.273438 34.261719 58.21875 31.890625 C 58.292969 29.429688 57.460938 27.027344 55.878906 25.140625 C 54.183594 23.210938 51.703125 22.160156 49.140625 22.28125 C 47.667969 22.285156 46.210938 22.601562 44.871094 23.210938 C 43.570312 23.796875 42.34375 24.535156 41.21875 25.410156 C 40.117188 26.257812 39.074219 27.175781 38.089844 28.160156 L 35.621094 30.628906 L 33.339844 28 C 33.394531 27.953125 33.449219 27.902344 33.5 27.851562 C 34.589844 26.589844 35.761719 25.308594 36.988281 24.050781 C 38.128906 22.882812 39.378906 21.828125 40.71875 20.898438 C 42.015625 20.007812 43.414062 19.269531 44.878906 18.699219 C 46.308594 18.152344 47.828125 17.878906 49.359375 17.890625 C 51.1875 17.847656 53.003906 18.1875 54.691406 18.890625 C 56.191406 19.539062 57.53125 20.5 58.628906 21.710938 C 59.742188 22.972656 60.597656 24.441406 61.148438 26.03125 C 61.769531 27.800781 62.078125 29.664062 62.058594 31.539062 C 62.085938 33.492188 61.789062 35.433594 61.179688 37.289062 Z M 25.839844 30.710938 L 27.039062 32.03125 C 26.285156 32.898438 25.476562 33.71875 24.621094 34.488281 C 23.675781 35.347656 22.671875 36.136719 21.621094 36.859375 C 20.589844 37.566406 19.484375 38.152344 18.320312 38.601562 C 17.222656 39.035156 16.058594 39.261719 14.878906 39.269531 C 12.910156 39.378906 10.988281 38.640625 9.601562 37.238281 C 8.28125 35.773438 7.59375 33.847656 7.679688 31.878906 C 7.648438 29.945312 8.3125 28.058594 9.550781 26.570312 C 10.792969 25.050781 12.679688 24.207031 14.640625 24.289062 C 15.839844 24.304688 17.023438 24.566406 18.121094 25.050781 C 19.320312 25.570312 20.457031 26.226562 21.511719 27 C 22.5625 27.769531 23.5625 28.605469 24.511719 29.5 Z M 37.070312 32.179688 L 37 32.058594 L 39.539062 29.519531 C 40.464844 28.59375 41.453125 27.730469 42.488281 26.929688 C 43.492188 26.136719 44.585938 25.464844 45.75 24.929688 C 46.84375 24.433594 48.027344 24.171875 49.230469 24.171875 C 51.230469 24.058594 53.167969 24.867188 54.5 26.359375 C 55.777344 27.898438 56.441406 29.851562 56.371094 31.851562 C 56.421875 33.777344 55.785156 35.65625 54.578125 37.160156 C 53.324219 38.652344 51.4375 39.460938 49.488281 39.351562 C 48.253906 39.351562 47.023438 39.125 45.871094 38.679688 C 44.695312 38.253906 43.574219 37.6875 42.53125 37 C 41.476562 36.277344 40.476562 35.488281 39.53125 34.628906 C 38.628906 33.789062 37.808594 33 37.070312 32.179688 Z M 37.070312 32.179688 "/>
<path style=" stroke:none;fill-rule:nonzero;fill:rgb(55.294118%,42.352941%,62.352941%);fill-opacity:1;" d="M 28.828125 46.070312 C 28.621094 45.769531 28.261719 45.605469 27.894531 45.644531 C 27.53125 45.6875 27.21875 45.925781 27.082031 46.265625 C 26.941406 46.609375 27.003906 46.996094 27.238281 47.28125 L 28.449219 48.871094 C 28.8125 49.1875 29.347656 49.207031 29.726562 48.910156 C 30.109375 48.613281 30.222656 48.085938 30 47.660156 Z M 7.589844 48.429688 C 7.339844 48.328125 7.0625 48.332031 6.816406 48.441406 C 6.570312 48.546875 6.375 48.75 6.28125 49 L 5.511719 50.851562 C 5.316406 51.335938 5.527344 51.890625 6 52.121094 C 6.121094 52.171875 6.25 52.199219 6.378906 52.199219 C 6.785156 52.199219 7.148438 51.953125 7.300781 51.578125 L 8.070312 49.730469 C 8.285156 49.238281 8.074219 48.664062 7.589844 48.429688 Z M 12.628906 49.789062 C 12.082031 49.71875 11.582031 50.105469 11.511719 50.648438 L 11.238281 52.648438 C 11.203125 52.914062 11.273438 53.183594 11.433594 53.394531 C 11.597656 53.605469 11.835938 53.746094 12.101562 53.78125 L 12.230469 53.78125 C 12.734375 53.785156 13.164062 53.410156 13.230469 52.910156 L 13.5 50.910156 C 13.535156 50.644531 13.460938 50.378906 13.296875 50.167969 C 13.132812 49.957031 12.894531 49.824219 12.628906 49.789062 Z M 17.851562 49.808594 C 17.308594 49.886719 16.929688 50.386719 17 50.929688 L 17.25 52.929688 C 17.316406 53.429688 17.746094 53.804688 18.25 53.800781 L 18.378906 53.800781 C 18.925781 53.726562 19.3125 53.226562 19.238281 52.679688 L 18.988281 50.679688 C 18.957031 50.410156 18.820312 50.167969 18.605469 50.003906 C 18.390625 49.839844 18.117188 49.769531 17.851562 49.808594 Z M 24.199219 49 C 23.988281 48.488281 23.40625 48.246094 22.894531 48.453125 C 22.382812 48.664062 22.140625 49.25 22.351562 49.761719 L 23.109375 51.609375 C 23.261719 51.984375 23.625 52.226562 24.03125 52.230469 C 24.160156 52.226562 24.289062 52.203125 24.410156 52.148438 C 24.917969 51.9375 25.15625 51.359375 24.949219 50.851562 Z M 44.21875 13.5 L 44.441406 13.5 C 45.445312 13.277344 46.472656 13.191406 47.5 13.25 C 48.023438 13.25 48.457031 12.851562 48.5 12.328125 C 48.5 11.808594 48.101562 11.371094 47.578125 11.328125 C 46.378906 11.265625 45.175781 11.367188 44 11.628906 C 43.589844 11.800781 43.339844 12.222656 43.386719 12.664062 C 43.433594 13.105469 43.769531 13.464844 44.210938 13.539062 Z M 32.640625 21.359375 C 32.902344 21.355469 33.15625 21.25 33.339844 21.058594 C 34.339844 20.058594 35.339844 19.058594 36.441406 18.058594 C 37.46875 17.105469 38.585938 16.25 39.78125 15.511719 C 40.148438 15.28125 40.53125 15.070312 40.921875 14.871094 C 41.339844 14.582031 41.476562 14.03125 41.242188 13.582031 C 41.007812 13.132812 40.472656 12.929688 40 13.109375 C 39.574219 13.328125 39.152344 13.566406 38.738281 13.820312 C 37.441406 14.628906 36.222656 15.558594 35.101562 16.601562 C 33.988281 17.601562 32.921875 18.679688 31.921875 19.730469 C 31.679688 20.019531 31.617188 20.417969 31.765625 20.765625 C 31.914062 21.109375 32.246094 21.34375 32.621094 21.371094 Z M 32.640625 21.359375 "/>
</g>
</svg>
